HIERARCHY
ROOT Hips
{
	OFFSET 0.000000 83.214638 0.000000
	CHANNELS 6 Xposition Yposition Zposition Xrotation Yrotation Zrotation
	JOINT Pelvis
	{
		OFFSET 0.000000 0.000000 0.000000
		CHANNELS 3 Xrotation Yrotation Zrotation
		JOINT LeftUpLeg
		{
			OFFSET 8.479700 -4.795502 -0.379100
			CHANNELS 3 Xrotation Yrotation Zrotation
			JOINT LeftLeg
			{
				OFFSET 0.024144 -32.555107 0.112900
				CHANNELS 3 Xrotation Yrotation Zrotation
				JOINT LeftFoot
				{
					OFFSET -0.024144 -32.638630 -3.012600
					CHANNELS 3 Xrotation Yrotation Zrotation
					JOINT LeftToeBase
					{
						OFFSET 0.970200 -13.225400 11.864200
						CHANNELS 3 Xrotation Yrotation Zrotation
						End Site
						{
							OFFSET 0.000000 12.319262 0.000000
						}
					}
					JOINT LFootTongue
					{
						OFFSET 1.142400 -1.059800 6.665200
						CHANNELS 3 Xrotation Yrotation Zrotation
						End Site
						{
							OFFSET 0.000000 12.319262 0.000000
						}
					}
				}
				JOINT LeftPantLeg
				{
					OFFSET 0.918482 -16.533964 -2.284700
					CHANNELS 3 Xrotation Yrotation Zrotation
					End Site
					{
						OFFSET 0.350399 24.744368 0.000000
					}
				}
			}
		}
		JOINT RightUpLeg
		{
			OFFSET -8.479700 -4.795502 -0.379100
			CHANNELS 3 Xrotation Yrotation Zrotation
			JOINT RightLeg
			{
				OFFSET -0.023144 -32.555092 0.112900
				CHANNELS 3 Xrotation Yrotation Zrotation
				JOINT RightFoot
				{
					OFFSET 0.023144 -32.638641 -3.012700
					CHANNELS 3 Xrotation Yrotation Zrotation
					JOINT RightToeBase
					{
						OFFSET -0.970200 -13.225400 11.864200
						CHANNELS 3 Xrotation Yrotation Zrotation
						End Site
						{
							OFFSET 0.000000 12.319244 0.000000
						}
					}
					JOINT RFootTongue
					{
						OFFSET -1.142200 -1.059800 6.665200
						CHANNELS 3 Xrotation Yrotation Zrotation
						End Site
						{
							OFFSET 0.000000 12.319243 0.000000
						}
					}
				}
				JOINT RightPantLeg
				{
					OFFSET -0.919482 -16.533978 -2.284800
					CHANNELS 3 Xrotation Yrotation Zrotation
					End Site
					{
						OFFSET -0.350400 24.744419 0.000000
					}
				}
			}
		}
	}
	JOINT Spine
	{
		OFFSET 0.000000 7.722000 1.166200
		CHANNELS 3 Xrotation Yrotation Zrotation
		JOINT Spine1
		{
			OFFSET 0.000000 12.024101 0.248800
			CHANNELS 3 Xrotation Yrotation Zrotation
			JOINT Spine2
			{
				OFFSET 0.000000 11.502998 -0.491200
				CHANNELS 3 Xrotation Yrotation Zrotation
				JOINT Neck
				{
					OFFSET 0.000000 18.430702 -3.123100
					CHANNELS 3 Xrotation Yrotation Zrotation
					JOINT Head
					{
						OFFSET 0.000000 9.051102 1.034000
						CHANNELS 3 Xrotation Yrotation Zrotation
						JOINT HairB
						{
							OFFSET 0.208400 24.786102 24.822300
							CHANNELS 3 Xrotation Yrotation Zrotation
							End Site
							{
								OFFSET 0.000000 32.263779 0.000000
							}
						}
						JOINT HairA
						{
							OFFSET -7.081100 24.428299 23.196600
							CHANNELS 3 Xrotation Yrotation Zrotation
							End Site
							{
								OFFSET 0.000000 32.263779 0.000000
							}
						}
						JOINT Hat
						{
							OFFSET 16.728800 15.048294 -15.439601
							CHANNELS 3 Xrotation Yrotation Zrotation
							End Site
							{
								OFFSET 0.000000 32.263779 0.000000
							}
						}
					}
				}
				JOINT LeftShoulder
				{
					OFFSET 6.197800 13.665199 -4.064700
					CHANNELS 3 Xrotation Yrotation Zrotation
					JOINT LeftArm
					{
						OFFSET 7.778100 -0.187103 -1.709300
						CHANNELS 3 Xrotation Yrotation Zrotation
						JOINT LeftForeArm
						{
							OFFSET 22.049376 0.000000 0.000000
							CHANNELS 3 Xrotation Yrotation Zrotation
							JOINT LeftHand
							{
								OFFSET 23.009392 0.000000 0.000000
								CHANNELS 3 Xrotation Yrotation Zrotation
								JOINT LeftHandThumb1
								{
									OFFSET 3.507191 -2.063065 3.133727
									CHANNELS 3 Xrotation Yrotation Zrotation
									JOINT LeftHandThumb2
									{
										OFFSET 3.101337 -1.790558 1.790558
										CHANNELS 3 Xrotation Yrotation Zrotation
										JOINT LeftHandThumb3
										{
											OFFSET 3.058640 -1.765907 1.765906
											CHANNELS 3 Xrotation Yrotation Zrotation
											End Site
											{
												OFFSET -0.415260 3.926476 -0.049563
											}
										}
									}
								}
								JOINT LeftHandIndex1
								{
									OFFSET 11.334419 -0.901459 3.706815
									CHANNELS 3 Xrotation Yrotation Zrotation
									JOINT LeftHandIndex2
									{
										OFFSET 3.283112 0.000000 0.000000
										CHANNELS 3 Xrotation Yrotation Zrotation
										JOINT LeftHandIndex3
										{
											OFFSET 3.323853 0.000000 0.000000
											CHANNELS 3 Xrotation Yrotation Zrotation
											End Site
											{
												OFFSET -1.135597 3.097809 0.402452
											}
										}
									}
								}
								JOINT LeftHandMiddle1
								{
									OFFSET 11.335861 0.000000 0.000000
									CHANNELS 3 Xrotation Yrotation Zrotation
									JOINT LeftHandMiddle2
									{
										OFFSET 3.410492 0.000000 0.000000
										CHANNELS 3 Xrotation Yrotation Zrotation
										JOINT LeftHandMiddle3
										{
											OFFSET 3.312172 0.000000 0.000000
											CHANNELS 3 Xrotation Yrotation Zrotation
											End Site
											{
												OFFSET -1.150200 3.080154 0.400270
											}
										}
									}
								}
								JOINT LeftHandRing1
								{
									OFFSET 11.514786 -0.013176 -3.003090
									CHANNELS 3 Xrotation Yrotation Zrotation
									JOINT LeftHandRing2
									{
										OFFSET 3.053307 0.000000 0.000000
										CHANNELS 3 Xrotation Yrotation Zrotation
										JOINT LeftHandRing3
										{
											OFFSET 3.295807 0.000000 0.000000
											CHANNELS 3 Xrotation Yrotation Zrotation
											End Site
											{
												OFFSET -1.281006 3.013344 0.375733
											}
										}
									}
								}
								JOINT LeftHandPinky1
								{
									OFFSET 10.518692 -0.960396 -5.730441
									CHANNELS 3 Xrotation Yrotation Zrotation
									JOINT LeftHandPinky2
									{
										OFFSET 2.861649 0.000000 0.000000
										CHANNELS 3 Xrotation Yrotation Zrotation
										JOINT LeftHandPinky3
										{
											OFFSET 2.863380 0.000000 0.000000
											CHANNELS 3 Xrotation Yrotation Zrotation
											End Site
											{
												OFFSET -0.843597 2.711159 0.369971
											}
										}
									}
								}
							}
							JOINT LSleeve
							{
								OFFSET 6.676277 -0.344902 -1.011730
								CHANNELS 3 Xrotation Yrotation Zrotation
								End Site
								{
									OFFSET 0.000000 14.885353 0.000000
								}
							}
						}
					}
				}
				JOINT RightShoulder
				{
					OFFSET -6.197800 13.665199 -4.064700
					CHANNELS 3 Xrotation Yrotation Zrotation
					JOINT RightArm
					{
						OFFSET -7.778100 -0.187103 -1.709300
						CHANNELS 3 Xrotation Yrotation Zrotation
						JOINT RightForeArm
						{
							OFFSET -22.049376 0.000000 0.000000
							CHANNELS 3 Xrotation Yrotation Zrotation
							JOINT RightHand
							{
								OFFSET -23.009392 0.000000 0.000000
								CHANNELS 3 Xrotation Yrotation Zrotation
								JOINT RightHandThumb1
								{
									OFFSET -3.507191 -2.063065 3.133727
									CHANNELS 3 Xrotation Yrotation Zrotation
									JOINT RightHandThumb2
									{
										OFFSET -3.101337 -1.790558 1.790558
										CHANNELS 3 Xrotation Yrotation Zrotation
										JOINT RightHandThumb3
										{
											OFFSET -3.058640 -1.765907 1.765906
											CHANNELS 3 Xrotation Yrotation Zrotation
											End Site
											{
												OFFSET 0.415260 3.926476 -0.049563
											}
										}
									}
								}
								JOINT RightHandIndex1
								{
									OFFSET -11.334419 -0.901459 3.706815
									CHANNELS 3 Xrotation Yrotation Zrotation
									JOINT RightHandIndex2
									{
										OFFSET -3.283112 0.000000 0.000000
										CHANNELS 3 Xrotation Yrotation Zrotation
										JOINT RightHandIndex3
										{
											OFFSET -3.323853 0.000000 0.000000
											CHANNELS 3 Xrotation Yrotation Zrotation
											End Site
											{
												OFFSET 1.135597 3.097809 0.402452
											}
										}
									}
								}
								JOINT RightHandMiddle1
								{
									OFFSET -11.335861 0.000000 0.000000
									CHANNELS 3 Xrotation Yrotation Zrotation
									JOINT RightHandMiddle2
									{
										OFFSET -3.410492 0.000000 0.000000
										CHANNELS 3 Xrotation Yrotation Zrotation
										JOINT RightHandMiddle3
										{
											OFFSET -3.312172 0.000000 0.000000
											CHANNELS 3 Xrotation Yrotation Zrotation
											End Site
											{
												OFFSET 1.150200 3.080154 0.400270
											}
										}
									}
								}
								JOINT RightHandRing1
								{
									OFFSET -11.514786 -0.013176 -3.003090
									CHANNELS 3 Xrotation Yrotation Zrotation
									JOINT RightHandRing2
									{
										OFFSET -3.053307 0.000000 0.000000
										CHANNELS 3 Xrotation Yrotation Zrotation
										JOINT RightHandRing3
										{
											OFFSET -3.295807 0.000000 0.000000
											CHANNELS 3 Xrotation Yrotation Zrotation
											End Site
											{
												OFFSET 1.281006 3.013344 0.375733
											}
										}
									}
								}
								JOINT RightHandPinky1
								{
									OFFSET -10.518692 -0.960396 -5.730441
									CHANNELS 3 Xrotation Yrotation Zrotation
									JOINT RightHandPinky2
									{
										OFFSET -2.861649 0.000000 0.000000
										CHANNELS 3 Xrotation Yrotation Zrotation
										JOINT RightHandPinky3
										{
											OFFSET -2.863380 0.000000 0.000000
											CHANNELS 3 Xrotation Yrotation Zrotation
											End Site
											{
												OFFSET 0.843597 2.711159 0.369971
											}
										}
									}
								}
							}
							JOINT RSleeve
							{
								OFFSET -6.676277 -0.344902 -1.011730
								CHANNELS 3 Xrotation Yrotation Zrotation
								End Site
								{
									OFFSET 0.000000 14.885353 0.000000
								}
							}
						}
					}
				}
				JOINT Backpack
				{
					OFFSET 0.000000 -2.471497 36.677502
					CHANNELS 3 Xrotation Yrotation Zrotation
					End Site
					{
						OFFSET 0.000000 20.427315 0.000000
					}
				}
				JOINT Hood
				{
					OFFSET 0.000000 18.754097 -10.431000
					CHANNELS 3 Xrotation Yrotation Zrotation
					JOINT Hood1
					{
						OFFSET 0.000000 -5.011002 -7.685901
						CHANNELS 3 Xrotation Yrotation Zrotation
						End Site
						{
							OFFSET 0.000000 9.175140 0.000000
						}
					}
				}
				JOINT LHoodieString
				{
					OFFSET 5.250500 16.397697 3.089900
					CHANNELS 3 Xrotation Yrotation Zrotation
					JOINT LHoodieString1
					{
						OFFSET 0.257700 -6.364304 3.694600
						CHANNELS 3 Xrotation Yrotation Zrotation
						JOINT LHoodieString2
						{
							OFFSET 0.000000 -9.643799 2.679100
							CHANNELS 3 Xrotation Yrotation Zrotation
							End Site
							{
								OFFSET 0.000000 10.009018 0.000000
							}
						}
					}
				}
				JOINT RHoodieString
				{
					OFFSET -5.250500 16.397697 3.089900
					CHANNELS 3 Xrotation Yrotation Zrotation
					JOINT RHoodieString1
					{
						OFFSET -0.257700 -6.364304 3.694600
						CHANNELS 3 Xrotation Yrotation Zrotation
						JOINT RHoodieString2
						{
							OFFSET 0.000000 -9.643799 2.679100
							CHANNELS 3 Xrotation Yrotation Zrotation
							End Site
							{
								OFFSET 0.000000 10.009018 0.000000
							}
						}
					}
				}
			}
			JOINT LBackpack_Strap
			{
				OFFSET 15.223200 -7.719803 -6.610900
				CHANNELS 3 Xrotation Yrotation Zrotation
				End Site
				{
					OFFSET 0.000000 16.040596 0.000000
				}
			}
			JOINT RBackpack_Strap
			{
				OFFSET -15.223000 -7.719803 -6.610900
				CHANNELS 3 Xrotation Yrotation Zrotation
				End Site
				{
					OFFSET 0.000000 16.040596 0.000000
				}
			}
		}
	}
	JOINT BoyFacialAnim_Joint
	{
		OFFSET 1.000000 -82.208099 -1.550900
		CHANNELS 3 Xrotation Yrotation Zrotation
		End Site
		{
			OFFSET 0.000000 30.012791 0.000000
		}
	}
}
MOTION
Frames: 4
Frame Time: 0.033333
-0.109189 65.365341 -1.454197 8.653903 -58.987652 4.847575 -0.000000 -0.000000 -0.000000 -45.138603 -2.837515 41.729454 51.654484 -5.518171 -0.657226 -9.774782 -5.521423 -29.918513 -0.000000 0.000000 -0.000000 -0.000000 0.000000 -0.000000 0.000001 0.000000 0.000002 -45.604091 -0.138736 -31.416401 65.013190 7.962846 0.437222 -20.297674 -3.120282 29.351375 -0.000000 0.000000 0.000000 -0.000000 0.000000 0.000000 0.000000 -0.000000 -0.000000 7.973087 1.861097 -0.997299 3.653390 0.410805 2.816717 3.627814 0.558846 2.829722 20.135340 3.747971 -9.886658 -4.852616 35.296410 -20.958700 0.000001 0.000000 0.000000 0.000001 0.000000 0.000000 0.000001 0.000000 0.000000 0.794929 -2.499738 -6.296677 -46.598013 27.012370 -44.339539 -0.020156 -91.495247 -0.020155 11.718159 -15.366705 8.165083 25.770642 2.087724 -0.829104 59.964252 6.042499 -30.402678 0.000002 -0.000000 -0.000000 6.791766 6.880636 -89.253422 6.791763 6.880619 -89.253470 0.000002 -0.000001 -0.000002 6.789814 6.880605 -89.237221 6.793687 6.880630 -89.269685 0.000002 0.000000 0.000000 6.791748 6.880609 -89.253422 6.791753 6.880624 -89.253463 0.000000 -0.000004 -0.000003 10.875348 6.934119 -89.234325 6.794064 2.794431 -89.280613 0.000004 0.000003 0.000000 0.000002 -0.000001 -0.000002 0.701316 -2.081129 10.121612 -68.267440 48.793898 87.917942 0.000004 112.058501 -0.000007 -19.936661 -6.666080 -21.208811 37.531186 -1.042674 14.670398 59.455827 -23.751525 11.697946 0.000002 0.000002 -0.000002 7.245909 -6.941913 92.461186 7.245891 -6.941886 92.461213 0.000002 -0.000004 0.000003 7.245889 -6.941905 92.461186 7.245889 -6.941873 92.461220 0.000001 0.000002 0.000002 7.245885 -6.941880 92.461186 7.245864 -6.941899 92.461207 0.000001 0.000001 0.000002 7.245882 -6.941865 92.461172 7.245886 -6.941907 92.461213 -0.000001 -0.000000 0.000000 -0.000001 0.000001 0.000000 0.000002 -0.000001 -0.000000 0.000002 -0.000001 -0.000000 0.000002 -0.000001 -0.000000 0.000002 -0.000001 -0.000000 0.000002 -0.000001 -0.000001 0.000002 -0.000003 -0.000000 0.000002 -0.000001 -0.000000 0.000002 -0.000001 -0.000001 0.000002 -0.000003 -0.000000 0.000001 0.000000 -0.000001 0.000001 0.000000 -0.000001 -0.000000 -0.000000 -0.000000 
-0.265723 65.330833 -1.566595 8.834173 -59.417359 5.080995 -0.000000 0.000002 -0.000000 -44.720708 -2.693093 41.969211 51.329882 -5.583937 -0.651216 -9.546660 -5.188829 -30.295980 -0.000000 -0.000001 0.000000 -0.000000 -0.000001 0.000000 -0.000000 0.000000 -0.000001 -45.648876 0.398766 -30.957006 65.298576 7.901411 0.435346 -20.552294 -3.202872 29.330287 0.000000 0.000000 -0.000000 0.000000 0.000000 -0.000000 -0.000002 0.000002 0.000000 7.931392 1.824105 -1.001363 3.609914 0.410510 2.711282 3.585959 0.541444 2.723946 20.438793 3.778616 -9.796658 -4.935354 35.352776 -20.972540 -0.000001 0.000000 0.000000 -0.000001 0.000000 0.000000 -0.000001 0.000000 0.000000 0.815744 -2.510691 -6.423206 -47.304599 26.873781 -44.096681 -0.007746 -91.574955 -0.007611 11.405941 -15.517719 7.692263 25.770647 2.087722 -0.829103 59.964259 6.042510 -30.402671 0.000003 0.000000 0.000001 6.791764 6.880631 -89.253422 6.791760 6.880623 -89.253463 -0.000001 0.000002 -0.000003 6.789814 6.880603 -89.237221 6.793688 6.880628 -89.269685 0.000002 -0.000001 -0.000000 6.791749 6.880608 -89.253422 6.791754 6.880622 -89.253463 -0.000002 0.000001 -0.000000 10.875348 6.934116 -89.234331 6.794068 2.794433 -89.280620 0.000003 0.000006 0.000001 -0.000000 0.000004 -0.000001 0.695574 -1.936775 9.892370 -67.874404 48.562508 87.471296 0.000115 112.207338 -0.000113 -19.923339 -6.770635 -20.674267 37.531179 -1.042667 14.670389 59.455834 -23.751527 11.697949 -0.000001 0.000002 -0.000001 7.245910 -6.941906 92.461186 7.245881 -6.941890 92.461213 -0.000004 -0.000001 0.000005 7.245884 -6.941896 92.461179 7.245886 -6.941874 92.461220 -0.000000 -0.000002 -0.000001 7.245884 -6.941873 92.461186 7.245860 -6.941903 92.461207 -0.000002 0.000000 0.000002 7.245883 -6.941859 92.461172 7.245891 -6.941910 92.461213 0.000000 0.000006 -0.000002 -0.000001 -0.000001 -0.000001 0.000003 0.000000 0.000000 0.000003 0.000000 0.000000 0.000003 0.000000 0.000000 0.000003 0.000000 0.000000 0.000003 0.000000 0.000001 0.000000 0.000000 0.000001 0.000003 0.000000 0.000000 0.000003 0.000000 0.000001 0.000000 0.000000 0.000001 -0.000000 -0.000004 0.000001 -0.000000 -0.000004 0.000001 -0.000000 0.000002 -0.000000 
-0.431751 65.343773 -1.702248 9.040970 -59.931331 5.323477 -0.000000 0.000000 -0.000000 -44.185050 -2.522137 42.158738 50.993492 -5.599558 -0.625990 -9.389699 -4.482441 -30.506989 -0.000000 0.000001 -0.000000 -0.000000 0.000001 -0.000000 -0.000001 0.000002 -0.000000 -45.730944 0.838103 -30.490740 65.471762 7.919217 0.438248 -20.716840 -3.258536 29.349900 0.000000 0.000001 0.000000 0.000000 0.000001 0.000000 -0.000003 -0.000003 -0.000000 7.953632 1.812282 -1.010607 3.616126 0.409323 2.635672 3.593117 0.533608 2.648346 20.477216 3.813496 -9.741273 -4.737832 35.407086 -21.105658 0.000000 -0.000001 -0.000000 0.000000 -0.000001 -0.000000 0.000000 -0.000001 -0.000000 0.822764 -2.473978 -6.471088 -47.936180 26.970289 -43.991220 0.013633 -91.691622 0.013506 11.431786 -15.499229 6.979440 25.770647 2.087720 -0.829106 59.964252 6.042505 -30.402675 0.000005 -0.000000 0.000002 6.791762 6.880631 -89.253422 6.791762 6.880621 -89.253470 -0.000002 -0.000003 -0.000002 6.789811 6.880601 -89.237221 6.793695 6.880630 -89.269685 0.000001 -0.000004 0.000001 6.791750 6.880604 -89.253422 6.791757 6.880623 -89.253456 0.000001 -0.000003 -0.000004 10.875343 6.934115 -89.234331 6.794068 2.794429 -89.280613 -0.000000 -0.000000 0.000001 0.000001 0.000004 0.000001 0.689762 -1.858430 9.727535 -67.577434 48.336576 87.187167 -0.000006 112.324291 -0.000007 -19.943124 -7.136343 -19.866305 37.531189 -1.042666 14.670387 59.455834 -23.751527 11.697948 -0.000000 0.000004 0.000001 7.245910 -6.941901 92.461186 7.245891 -6.941894 92.461213 0.000002 -0.000001 0.000005 7.245892 -6.941901 92.461186 7.245889 -6.941878 92.461220 0.000005 0.000001 0.000003 7.245884 -6.941873 92.461186 7.245864 -6.941901 92.461200 -0.000000 0.000000 0.000004 7.245884 -6.941860 92.461172 7.245884 -6.941909 92.461220 0.000002 0.000003 0.000002 -0.000003 -0.000002 0.000001 0.000001 0.000001 -0.000000 0.000001 0.000001 -0.000000 0.000001 0.000001 -0.000000 0.000001 0.000001 -0.000000 0.000001 0.000001 -0.000000 -0.000000 -0.000000 -0.000000 0.000001 0.000001 -0.000000 0.000001 0.000001 -0.000000 -0.000000 -0.000000 -0.000000 0.000002 0.000002 -0.000000 0.000002 0.000002 -0.000000 -0.000000 0.000000 -0.000000 
-0.589783 65.415283 -1.857788 9.451436 -60.484016 5.761157 0.000000 0.000001 -0.000000 -43.653136 -2.371980 42.148032 50.746011 -5.499561 -0.564526 -9.195827 -3.003013 -30.445295 -0.000000 0.000001 0.000000 -0.000000 0.000001 0.000000 0.000001 0.000002 0.000000 -45.982118 1.075135 -30.146290 65.488694 7.979474 0.453058 -20.765003 -3.077461 29.330335 0.000000 -0.000001 0.000000 0.000000 -0.000001 0.000000 0.000001 0.000001 -0.000001 8.029009 1.801380 -1.081190 3.668550 0.406568 2.588779 3.645965 0.531808 2.601723 20.086507 3.856140 -9.664885 -4.257598 35.386421 -21.364973 -0.000001 0.000000 -0.000000 -0.000001 0.000000 -0.000000 -0.000001 0.000000 -0.000000 0.811169 -2.373278 -6.460833 -48.439507 27.095704 -43.937401 -0.008189 -91.837269 -0.008202 12.159159 -15.411618 6.251960 25.770644 2.087725 -0.829103 59.964252 6.042506 -30.402671 0.000001 -0.000001 0.000000 6.791764 6.880630 -89.253422 6.791757 6.880618 -89.253463 -0.000000 0.000000 -0.000004 6.789811 6.880602 -89.237221 6.793689 6.880628 -89.269685 -0.000000 0.000001 0.000000 6.791751 6.880607 -89.253422 6.791755 6.880619 -89.253463 0.000000 -0.000003 0.000001 10.875347 6.934117 -89.234325 6.794066 2.794430 -89.280613 -0.000001 0.000003 -0.000001 -0.000000 -0.000001 0.000000 0.680837 -1.935493 9.663259 -67.605772 48.268076 87.295330 0.000080 112.453471 -0.000080 -20.091172 -7.708873 -18.775452 37.531179 -1.042670 14.670389 59.455834 -23.751529 11.697945 0.000001 0.000004 0.000000 7.245912 -6.941909 92.461186 7.245884 -6.941891 92.461213 -0.000000 -0.000001 0.000003 7.245889 -6.941900 92.461186 7.245885 -6.941879 92.461213 -0.000001 0.000002 0.000002 7.245888 -6.941876 92.461179 7.245861 -6.941894 92.461207 -0.000003 -0.000001 0.000005 7.245882 -6.941866 92.461172 7.245884 -6.941901 92.461220 -0.000001 0.000003 0.000001 0.000002 0.000001 0.000000 0.000001 -0.000001 0.000000 0.000001 -0.000001 0.000000 0.000001 -0.000001 0.000000 0.000001 -0.000001 0.000000 0.000001 -0.000001 0.000000 0.000001 0.000000 -0.000001 0.000001 -0.000001 0.000000 0.000001 -0.000001 0.000000 0.000001 0.000000 -0.000001 0.000000 0.000002 -0.000000 0.000000 0.000002 -0.000000 0.000000 0.000001 -0.000000 
